<svg width="24" height="24" viewBox="0 0 24 24" fill="none" xmlns="http://www.w3.org/2000/svg">
<g clip-path="url(#clip0)">
<path d="M18.2917 14.1333C18.2794 14.235 18.2301 14.3285 18.1533 14.3961C18.0764 14.4638 17.9774 14.5007 17.875 14.5H16.1667C16.0562 14.5 15.9502 14.5439 15.872 14.622C15.7939 14.7002 15.75 14.8062 15.75 14.9167V21.5833C15.75 21.6938 15.7939 21.7998 15.872 21.878C15.9502 21.9561 16.0562 22 16.1667 22H21.1667C21.3877 22 21.5996 21.9122 21.7559 21.7559C21.9122 21.5996 22 21.3877 22 21.1667V2.83333C22 2.61232 21.9122 2.40036 21.7559 2.24408C21.5996 2.0878 21.3877 2 21.1667 2H2.83333C2.61232 2 2.40036 2.0878 2.24408 2.24408C2.0878 2.40036 2 2.61232 2 2.83333V21.1667C2 21.3877 2.0878 21.5996 2.24408 21.7559C2.40036 21.9122 2.61232 22 2.83333 22H12C12.1105 22 12.2165 21.9561 12.2946 21.878C12.3728 21.7998 12.4167 21.6938 12.4167 21.5833V14.9167C12.4167 14.8062 12.3728 14.7002 12.2946 14.622C12.2165 14.5439 12.1105 14.5 12 14.5H10.3333C10.2228 14.5 10.1168 14.4561 10.0387 14.378C9.96056 14.2998 9.91667 14.1938 9.91667 14.0833V11.5833C9.91667 11.4728 9.96056 11.3668 10.0387 11.2887C10.1168 11.2106 10.2228 11.1667 10.3333 11.1667H12C12.1105 11.1667 12.2165 11.1228 12.2946 11.0446C12.3728 10.9665 12.4167 10.8605 12.4167 10.75V9.65833C12.4167 8.40076 12.9162 7.1947 13.8055 6.30547C14.6947 5.41623 15.9008 4.91667 17.1583 4.91667H18.25C18.3605 4.91667 18.4665 4.96057 18.5446 5.03871C18.6228 5.11685 18.6667 5.22283 18.6667 5.33333V7.83333C18.6667 7.94384 18.6228 8.04982 18.5446 8.12796C18.4665 8.2061 18.3605 8.25 18.25 8.25H17.1583C16.7848 8.25 16.4266 8.39838 16.1625 8.66249C15.8984 8.9266 15.75 9.28482 15.75 9.65833V10.75C15.75 10.8605 15.7939 10.9665 15.872 11.0446C15.9502 11.1228 16.0562 11.1667 16.1667 11.1667H18.1917C18.2509 11.1662 18.3095 11.1784 18.3636 11.2024C18.4177 11.2264 18.4661 11.2617 18.5055 11.3058C18.5449 11.35 18.5745 11.402 18.5922 11.4585C18.6099 11.515 18.6154 11.5746 18.6083 11.6333L18.2917 14.1333Z" fill="#7385A5"/>
</g>
<defs>
<clipPath id="clip0">
<rect width="20" height="20" fill="white" transform="translate(2 2)"/>
</clipPath>
</defs>
</svg>
