<svg width="24" height="24" viewBox="0 0 24 24" fill="none" xmlns="http://www.w3.org/2000/svg">
<path d="M5 9C5 6.17157 5 4.75736 5.87868 3.87868C6.75736 3 8.17157 3 11 3H12.5147C13.741 3 14.3541 3 14.9054 3.22836C15.4567 3.45672 15.8903 3.89027 16.7574 4.75736L17.2426 5.24264C18.1097 6.10973 18.5433 6.54328 18.7716 7.09459C19 7.6459 19 8.25903 19 9.48528V15C19 17.8284 19 19.2426 18.1213 20.1213C17.2426 21 15.8284 21 13 21H11C8.17157 21 6.75736 21 5.87868 20.1213C5 19.2426 5 17.8284 5 15V9Z" stroke="#232933" stroke-linecap="round" stroke-linejoin="round"/>
<path d="M14 3.5V4.00003C14 5.88565 14 6.82846 14.5858 7.41424C15.1716 8.00003 16.1144 8.00003 18 8.00003H18.5" stroke="#232933" stroke-linecap="round" stroke-linejoin="round"/>
<path d="M14 11H11.5C10.6716 11 10 11.6716 10 12.5V12.5C10 13.3284 10.6716 14 11.5 14H12.5C13.3284 14 14 14.6716 14 15.5V15.5C14 16.3284 13.3284 17 12.5 17H10" stroke="#626B79" stroke-linecap="round" stroke-linejoin="round"/>
<path d="M12 11V10M12 17V18" stroke="#626B79" stroke-linecap="round" stroke-linejoin="round"/>
</svg>
