<svg width="24" height="24" viewBox="0 0 24 24" fill="none" xmlns="http://www.w3.org/2000/svg">
<g clip-path="url(#clip0)">
<path d="M21.1667 2H2.83333C2.61232 2 2.40036 2.0878 2.24408 2.24408C2.0878 2.40036 2 2.61232 2 2.83333V21.1667C2 21.3877 2.0878 21.5996 2.24408 21.7559C2.40036 21.9122 2.61232 22 2.83333 22H21.1667C21.3877 22 21.5996 21.9122 21.7559 21.7559C21.9122 21.5996 22 21.3877 22 21.1667V2.83333C22 2.61232 21.9122 2.40036 21.7559 2.24408C21.5996 2.0878 21.3877 2 21.1667 2V2ZM18.9667 6.875L17.8333 7.9C17.7888 7.93501 17.7546 7.98131 17.734 8.03407C17.7135 8.08683 17.7075 8.14413 17.7167 8.2V16.1C17.7075 16.1559 17.7135 16.2132 17.734 16.2659C17.7546 16.3187 17.7888 16.365 17.8333 16.4L18.9583 17.5083V17.7333H13.6667V17.5083L14.6333 16.375C14.7417 16.2667 14.7417 16.2333 14.7417 16.075V10.3333L12.4083 16.9167L12.1583 17.75H11.5C9.29167 12.925 8.59167 11.2333 7.91667 10.075V15.9083L9.28333 17.575V17.8H5.33333V17.575L6.66667 15.9083V8.40833L5.63333 7.125V6.68333H9.60833L12.2917 13.1083L14.5 7.05C14.5335 6.90387 14.6184 6.77466 14.7393 6.68593C14.8602 6.5972 15.0089 6.55488 15.1583 6.56667H18.975L18.9667 6.875Z" fill="#7385A5"/>
</g>
<defs>
<clipPath id="clip0">
<rect width="20" height="20" fill="white" transform="translate(2 2)"/>
</clipPath>
</defs>
</svg>
