<?xml version="1.0" encoding="utf-8"?>
<!-- Generator: Adobe Illustrator 16.0.0, SVG Export Plug-In . SVG Version: 6.00 Build 0)  -->
<!DOCTYPE svg PUBLIC "-//W3C//DTD SVG 1.1//EN" "http://www.w3.org/Graphics/SVG/1.1/DTD/svg11.dtd">
<svg version="1.1" id="Capa_1" xmlns="http://www.w3.org/2000/svg" xmlns:xlink="http://www.w3.org/1999/xlink" x="0px" y="0px"
	 width="512px" height="512px" viewBox="0 0 512 512" enable-background="new 0 0 512 512" xml:space="preserve">
<g>
	<path fill="#626B79" d="M437,129h-14V75c0-41.355-33.645-75-75-75H164c-41.355,0-75,33.645-75,75v54H75c-41.355,0-75,33.645-75,75
		v120c0,41.355,33.645,75,75,75h14v68c0,24.813,20.187,45,45,45h244c24.813,0,45-20.187,45-45v-68h14c41.355,0,75-33.645,75-75V204
		C512,162.645,478.355,129,437,129z M119,75c0-24.813,20.187-45,45-45h184c24.813,0,45,20.187,45,45v54H119V75z M393,467
		c0,8.271-6.729,15-15,15H134c-8.271,0-15-6.729-15-15V319h274V467z M482,324c0,24.813-20.188,45-45,45h-14v-50h9
		c8.284,0,15-6.716,15-15s-6.716-15-15-15H80c-8.284,0-15,6.716-15,15s6.716,15,15,15h9v50H75c-24.813,0-45-20.188-45-45V204
		c0-24.813,20.187-45,45-45h362c24.813,0,45,20.187,45,45V324z"/>
	<path fill="#626B79" d="M296,353h-80c-8.284,0-15,6.716-15,15s6.716,15,15,15h80c8.284,0,15-6.716,15-15S304.284,353,296,353z"/>
	<path fill="#626B79" d="M296,417h-80c-8.284,0-15,6.716-15,15s6.716,15,15,15h80c8.284,0,15-6.716,15-15S304.284,417,296,417z"/>
	<path fill="#626B79" d="M128,193H80c-8.284,0-15,6.716-15,15s6.716,15,15,15h48c8.284,0,15-6.716,15-15S136.284,193,128,193z"/>
</g>
</svg>
