<svg width="20" height="20" viewBox="0 0 20 20" fill="none" xmlns="http://www.w3.org/2000/svg">
<g clip-path="url(#clip0)">
<path d="M11.6666 6.66602H9.87825V6.66602C9.02497 6.66632 8.3335 7.35829 8.33381 8.21157C8.33402 8.7964 8.66442 9.33097 9.18742 9.59268L10.8124 10.406V10.406C11.5755 10.7879 11.8845 11.716 11.5027 12.4791C11.241 13.0021 10.7064 13.3325 10.1216 13.3327H8.33325" stroke="#626B79" stroke-linecap="round" stroke-linejoin="round"/>
<path d="M10 6.66602V5.41602" stroke="#626B79" stroke-linecap="round" stroke-linejoin="round"/>
<path d="M10 14.583V13.333" stroke="#626B79" stroke-linecap="round" stroke-linejoin="round"/>
<path d="M19.5832 9.99978V9.99902C19.5832 12.0832 18.9041 14.1106 17.6487 15.7742" stroke="#232933" stroke-linecap="round" stroke-linejoin="round"/>
<path d="M15.9658 2.5V2.5C17.5971 3.79699 18.7607 5.59082 19.28 7.60917" stroke="#232933" stroke-linecap="round" stroke-linejoin="round"/>
<path d="M7.84399 0.666266V0.666267C9.87444 0.195566 12.003 0.400379 13.9065 1.2496" stroke="#232933" stroke-linecap="round" stroke-linejoin="round"/>
<path d="M1.34985 5.87331V5.87331C2.24679 3.99178 3.73311 2.45427 5.58319 1.49414" stroke="#232933" stroke-linecap="round" stroke-linejoin="round"/>
<path d="M1.3866 14.2002V14.2002C0.474156 12.3282 0.195973 10.2101 0.594098 8.16602" stroke="#232933" stroke-linecap="round" stroke-linejoin="round"/>
<path d="M7.92571 19.355V19.355C5.8906 18.9048 4.05807 17.8026 2.70654 16.2158" stroke="#232933" stroke-linecap="round" stroke-linejoin="round"/>
<path d="M16.0308 17.4473V17.4473C14.4114 18.7594 12.408 19.5073 10.325 19.5773" stroke="#232933" stroke-linecap="round" stroke-linejoin="round"/>
</g>
<defs>
<clipPath id="clip0">
<rect width="20" height="20" fill="white"/>
</clipPath>
</defs>
</svg>
