<svg width="24" height="24" viewBox="0 0 24 24" fill="none" xmlns="http://www.w3.org/2000/svg">
<path fill-rule="evenodd" clip-rule="evenodd" d="M9.52513 5.18168C10.2018 4.50502 10.6745 4.03384 11.0784 3.72564C11.4708 3.42624 11.7391 3.32812 12 3.32812C12.2609 3.32812 12.5292 3.42624 12.9216 3.72564C13.3255 4.03384 13.7982 4.50502 14.4749 5.18168L16.6463 7.35312C16.6464 7.35316 16.6464 7.35321 16.6464 7.35325L16.8891 7.59589C16.8891 7.59593 16.8892 7.59597 16.8892 7.59602C17.7851 8.49186 18.1283 8.84759 18.3097 9.28563C18.4911 9.72369 18.5 10.2179 18.5 11.485V14.9997C18.5 16.428 18.4989 17.449 18.3946 18.2249C18.2922 18.9864 18.0987 19.4365 17.7678 19.7675C17.4368 20.0984 16.9867 20.2919 16.2252 20.3943C15.4493 20.4986 14.4283 20.4997 13 20.4997H11C9.57165 20.4997 8.55069 20.4986 7.77481 20.3943C7.01331 20.2919 6.56319 20.0984 6.23223 19.7675C5.90128 19.4365 5.70776 18.9864 5.60538 18.2249C5.50106 17.449 5.5 16.428 5.5 14.9997V11.485C5.5 10.2179 5.50885 9.72369 5.6903 9.28563C5.87175 8.84757 6.21497 8.49183 7.11091 7.59589L7.35355 7.35325L9.52513 5.18168ZM6.64645 6.64614L8.81802 4.47457L8.84388 4.44871C9.48856 3.80401 10.0082 3.28436 10.4718 2.93061C10.9532 2.56335 11.4325 2.32812 12 2.32812C12.5675 2.32812 13.0468 2.56335 13.5282 2.93061C13.9918 3.28436 14.5114 3.804 15.1561 4.4487L15.1561 4.44871L15.182 4.47457L17.3531 6.64574C17.3533 6.64587 17.3534 6.64601 17.3536 6.64614L17.5962 6.88879L17.6722 6.96472C17.7214 7.01391 17.7694 7.06197 17.8164 7.109L22.3536 11.6461C22.5488 11.8414 22.5488 12.158 22.3536 12.3533C22.1583 12.5485 21.8417 12.5485 21.6464 12.3533L19.4823 10.1891C19.5002 10.5323 19.5001 10.9205 19.5 11.3775V11.3776L19.5 11.485V14.9997V15.0376C19.5 16.4197 19.5 17.5079 19.3857 18.3581C19.2684 19.2305 19.0226 19.9268 18.4749 20.4746C17.9272 21.0223 17.2308 21.2681 16.3584 21.3854C15.5082 21.4997 14.42 21.4997 13.038 21.4997H13H11H10.962C9.58 21.4997 8.49179 21.4997 7.64156 21.3854C6.76917 21.2681 6.07285 21.0223 5.52513 20.4746C4.9774 19.9268 4.73158 19.2305 4.61429 18.3581C4.49998 17.5079 4.49999 16.4197 4.5 15.0377V14.9997V11.485L4.49998 11.3776C4.49988 10.9205 4.49979 10.5323 4.51772 10.1891L2.35355 12.3533C2.15829 12.5485 1.84171 12.5485 1.64645 12.3533C1.45118 12.158 1.45118 11.8414 1.64645 11.6461L6.18331 7.10928C6.23037 7.06216 6.27853 7.01401 6.32784 6.96473L6.32784 6.96473L6.40381 6.88878L6.64645 6.64614Z" fill="#232933"/>
</svg>
