<svg width="24" height="24" viewBox="0 0 24 24" fill="none" xmlns="http://www.w3.org/2000/svg">
<path d="M16.5833 2H7.41667C5.98075 2.0022 4.60428 2.57359 3.58894 3.58894C2.57359 4.60428 2.0022 5.98075 2 7.41667V16.5833C2.0022 18.0192 2.57359 19.3957 3.58894 20.4111C4.60428 21.4264 5.98075 21.9978 7.41667 22H16.5833C18.0192 21.9978 19.3957 21.4264 20.4111 20.4111C21.4264 19.3957 21.9978 18.0192 22 16.5833V7.41667C21.9978 5.98075 21.4264 4.60428 20.4111 3.58894C19.3957 2.57359 18.0192 2.0022 16.5833 2V2ZM12 16.5833C11.0935 16.5833 10.2074 16.3145 9.45364 15.8109C8.69991 15.3073 8.11245 14.5915 7.76555 13.754C7.41865 12.9165 7.32789 11.9949 7.50473 11.1058C7.68158 10.2168 8.1181 9.40008 8.75909 8.75909C9.40008 8.1181 10.2168 7.68158 11.1058 7.50473C11.9949 7.32789 12.9165 7.41865 13.754 7.76555C14.5915 8.11245 15.3073 8.69991 15.8109 9.45364C16.3145 10.2074 16.5833 11.0935 16.5833 12C16.5833 13.2156 16.1004 14.3814 15.2409 15.2409C14.3814 16.1004 13.2156 16.5833 12 16.5833ZM17.4167 7.41667C17.1694 7.41667 16.9278 7.34336 16.7222 7.206C16.5166 7.06865 16.3564 6.87343 16.2618 6.64502C16.1672 6.41661 16.1425 6.16528 16.1907 5.9228C16.2389 5.68033 16.358 5.4576 16.5328 5.28278C16.7076 5.10797 16.9303 4.98892 17.1728 4.94069C17.4153 4.89245 17.6666 4.91721 17.895 5.01182C18.1234 5.10643 18.3187 5.26664 18.456 5.4722C18.5934 5.67777 18.6667 5.91944 18.6667 6.16667C18.6667 6.49819 18.535 6.81613 18.3005 7.05055C18.0661 7.28497 17.7482 7.41667 17.4167 7.41667Z" fill="#7385A5"/>
</svg>
