<svg width="24" height="24" viewBox="0 0 24 24" fill="none" xmlns="http://www.w3.org/2000/svg">
<path d="M5 13.9999C6.10457 13.9999 7 13.1044 7 11.9999C7 10.8953 6.10457 9.99988 5 9.99988C3.89543 9.99988 3 10.8953 3 11.9999C3 13.1044 3.89543 13.9999 5 13.9999Z" fill="#7385A5"/>
<path d="M12 13.9999C13.1046 13.9999 14 13.1044 14 11.9999C14 10.8953 13.1046 9.99988 12 9.99988C10.8954 9.99988 10 10.8953 10 11.9999C10 13.1044 10.8954 13.9999 12 13.9999Z" fill="#7385A5"/>
<path d="M19 13.9999C20.1046 13.9999 21 13.1044 21 11.9999C21 10.8953 20.1046 9.99988 19 9.99988C17.8954 9.99988 17 10.8953 17 11.9999C17 13.1044 17.8954 13.9999 19 13.9999Z" fill="#7385A5"/>
</svg>
