<svg width="18" height="20" viewBox="0 0 18 20" fill="none" xmlns="http://www.w3.org/2000/svg">
<path d="M7.60584 2.67617L8 2.5908V2.1875V1.5C8 0.975361 8.47536 0.5 9 0.5C9.52464 0.5 10 0.975361 10 1.5V2.1875V2.5908L10.3942 2.67617C13.3273 3.31144 15.5 5.86346 15.5 9V13.5V13.6862L15.6218 13.8271L17.5 15.9987V16.5H0.5V15.9987L2.37818 13.8271L2.5 13.6862V13.5V9C2.5 5.86346 4.6727 3.31144 7.60584 2.67617ZM9 19.5C8.3497 19.5 7.79303 19.0813 7.58609 18.5H10.4139C10.207 19.0813 9.6503 19.5 9 19.5Z" stroke="#7385A5"/>
</svg>
