<svg width="147" height="48" viewBox="0 0 147 48" fill="none" xmlns="http://www.w3.org/2000/svg">
<path d="M7.52034 7.41815C3.36697 7.41815 0 10.7966 0 14.964C0 19.1315 3.36697 22.5099 7.52034 22.5099C11.6737 22.5099 15.0407 19.1315 15.0407 14.964C15.0407 10.7966 11.6737 7.41815 7.52034 7.41815Z" fill="#009BDE"/>
<path d="M7.52034 28.5446C4.83358 28.5446 2.35091 29.9828 1.00753 32.3175C-0.335845 34.6522 -0.335845 37.5287 1.00753 39.8634C2.35091 42.1981 4.83358 43.6364 7.52034 43.6364C10.2071 43.6364 12.6898 42.1981 14.0331 39.8634C15.3765 37.5287 15.3765 34.6522 14.0331 32.3175C12.6898 29.9828 10.2071 28.5446 7.52034 28.5446Z" fill="#F96D01"/>
<path d="M28.5775 28.5446C25.8907 28.5446 23.408 29.9828 22.0647 32.3175C20.7213 34.6522 20.7213 37.5287 22.0647 39.8634C23.408 42.1981 25.8907 43.6364 28.5775 43.6364C31.2642 43.6364 33.7469 42.1981 35.0903 39.8634C36.4337 37.5287 36.4337 34.6522 35.0903 32.3175C33.7469 29.9828 31.2642 28.5446 28.5775 28.5446Z" stroke="#C02A34" stroke-linecap="round" stroke-dasharray="2 10"/>
<path d="M22.6156 7.41815H35.6629C35.9031 7.41815 36.0978 7.61352 36.0978 7.85452V20.9454C36.0978 21.1864 35.9031 21.3818 35.6629 21.3818H22.6156C22.3754 21.3818 22.1807 21.1864 22.1807 20.9454V7.85452C22.1807 7.61352 22.3754 7.41815 22.6156 7.41815Z" fill="#4C33FF"/>
<path d="M54.2886 23.9116V16.105C54.2886 15.4272 54.3647 14.793 54.517 14.2026C54.6692 13.6122 54.8867 13.1038 55.1695 12.6774C55.4523 12.251 55.8003 11.912 56.2135 11.6606C56.6268 11.4091 57.1053 11.2834 57.6491 11.2834C59.5196 11.2834 60.4549 12.3767 60.4549 14.5634V23.9116H64.7288V16.105C64.7288 15.4272 64.8104 14.793 64.9735 14.2026C65.1366 13.6122 65.365 13.1038 65.6587 12.6774C65.9523 12.251 66.3166 11.912 66.7516 11.6606C67.1866 11.4091 67.6869 11.2834 68.2524 11.2834C70.0359 11.2834 70.9277 12.3767 70.9277 14.5634V23.9116H75.2017V13.7762C75.2017 12.8359 75.082 11.9667 74.8428 11.1686C74.6035 10.3704 74.2501 9.68708 73.7824 9.11854C73.3148 8.54999 72.7221 8.10719 72.0043 7.79012C71.2866 7.47304 70.4383 7.31451 69.4595 7.31451C68.1545 7.31451 67.0452 7.60425 66.1317 8.18372C65.2182 8.7632 64.5113 9.45747 64.0111 10.2666C63.663 9.43561 63.0758 8.73586 62.2493 8.16732C61.4227 7.59878 60.4005 7.31451 59.1825 7.31451C58.1384 7.31451 57.1869 7.55505 56.3277 8.03612C55.4686 8.51719 54.7889 9.15134 54.2886 9.93855H54.0276V7.83932H50.0146V23.9116H54.2886ZM85.7506 24.4364C87.5559 24.4364 89.0839 24.0318 90.3345 23.2227C91.5852 22.4137 92.5803 21.3531 93.3198 20.0411L89.7636 18.2699C89.3938 18.9478 88.8881 19.5108 88.2465 19.9591C87.6048 20.4074 86.7946 20.6315 85.8159 20.6315C85.3156 20.6315 84.8262 20.5604 84.3477 20.4183C83.8692 20.2762 83.4288 20.0466 83.0264 19.7295C82.624 19.4124 82.2869 19.0188 82.015 18.5487C81.7431 18.0785 81.5637 17.5155 81.4767 16.8595H93.5155C93.5155 16.7282 93.5264 16.608 93.5481 16.4986C93.5481 16.3893 93.559 16.269 93.5808 16.1378V15.7442C93.5808 14.5415 93.4068 13.4263 93.0588 12.3986C92.7108 11.3708 92.1996 10.4798 91.5254 9.72534C90.8511 8.97093 90.0137 8.38052 89.0132 7.95412C88.0127 7.52771 86.8708 7.31451 85.5875 7.31451C84.3695 7.31451 83.2547 7.54411 82.2434 8.00332C81.232 8.46253 80.3565 9.08027 79.617 9.85655C78.8775 10.6328 78.3011 11.5403 77.8878 12.579C77.4746 13.6177 77.2679 14.7165 77.2679 15.8754C77.2679 17.1219 77.48 18.2644 77.9041 19.3031C78.3283 20.3418 78.921 21.2438 79.6822 22.0091C80.4435 22.7745 81.3407 23.3703 82.3739 23.7968C83.407 24.2232 84.5326 24.4364 85.7506 24.4364ZM89.4373 13.809H81.705C81.9878 12.8687 82.4772 12.1362 83.1732 11.6114C83.8692 11.0866 84.674 10.8242 85.5875 10.8242C86.24 10.8242 86.8001 10.9226 87.2677 11.1194C87.7353 11.3162 88.1269 11.5676 88.4422 11.8738C88.7576 12.1799 88.9969 12.5079 89.16 12.8578C89.3231 13.2077 89.4156 13.5247 89.4373 13.809ZM100.052 23.9116V18.7291L101.944 16.8595L106.316 23.9116H111.373V23.6492L104.945 13.9074L110.883 8.10172V7.83932H105.598L100.247 13.2186H100.052V0.426406H95.7776V23.9116H100.052ZM117.256 24.4364C118.365 24.4364 119.273 24.2177 119.98 23.7804C120.687 23.343 121.291 22.8182 121.791 22.2059H122.052V23.9116H126.261V14.2682C126.261 11.9722 125.608 10.2392 124.303 9.06933C122.998 7.89945 121.106 7.31451 118.626 7.31451C115.69 7.31451 113.374 8.38599 111.677 10.529L114.777 12.661C115.799 11.4146 117.049 10.7914 118.529 10.7914C119.529 10.7914 120.366 11.0702 121.041 11.6278C121.715 12.1854 122.052 12.8906 122.052 13.7434V14.2354C121.617 14.0605 121.062 13.891 120.388 13.727C119.714 13.563 118.855 13.481 117.811 13.481C116.875 13.481 116.011 13.6067 115.217 13.8582C114.423 14.1097 113.733 14.4759 113.145 14.957C112.558 15.4381 112.101 16.0121 111.775 16.679C111.449 17.346 111.286 18.0949 111.286 18.9259C111.286 19.735 111.438 20.4784 111.742 21.1563C112.047 21.8342 112.471 22.4137 113.015 22.8947C113.559 23.3758 114.195 23.753 114.923 24.0264C115.652 24.2997 116.43 24.4364 117.256 24.4364ZM118.202 21.0907C117.506 21.0907 116.892 20.8939 116.359 20.5003C115.826 20.1067 115.56 19.5819 115.56 18.9259C115.56 18.2699 115.837 17.7177 116.392 17.2695C116.946 16.8212 117.735 16.597 118.757 16.597C119.388 16.597 119.969 16.6681 120.502 16.8103C121.035 16.9524 121.552 17.1437 122.052 17.3843C122.052 17.8653 121.96 18.33 121.775 18.7783C121.59 19.2266 121.329 19.6202 120.992 19.9591C120.655 20.298 120.247 20.5714 119.768 20.7791C119.29 20.9868 118.768 21.0907 118.202 21.0907ZM133.384 23.9116V16.0394C133.384 15.3834 133.477 14.7766 133.661 14.219C133.846 13.6614 134.107 13.1749 134.444 12.7594C134.782 12.3439 135.189 12.0214 135.668 11.7918C136.146 11.5622 136.679 11.4474 137.267 11.4474C137.723 11.4474 138.109 11.4856 138.425 11.5622C138.74 11.6387 139.028 11.7426 139.289 11.8738L140.431 7.97052C140.148 7.79558 139.806 7.65345 139.403 7.54411C139.001 7.43478 138.517 7.38011 137.952 7.38011C137.495 7.38011 137.033 7.44571 136.565 7.57691C136.097 7.70811 135.662 7.89398 135.26 8.13452C134.858 8.37506 134.493 8.65933 134.167 8.98733C133.841 9.31534 133.58 9.67614 133.384 10.0697H133.123V7.83932H129.11V23.9116H133.384ZM144.227 5.51048C144.988 5.51048 145.64 5.24261 146.184 4.70687C146.728 4.17113 147 3.52059 147 2.75524C147 1.9899 146.728 1.33935 146.184 0.803612C145.64 0.267871 144.988 0 144.227 0C143.857 0 143.503 0.0710677 143.166 0.213203C142.829 0.355339 142.536 0.552142 142.285 0.803612C142.035 1.05508 141.84 1.34482 141.698 1.67282C141.557 2.00083 141.486 2.36164 141.486 2.75524C141.486 3.14885 141.557 3.50965 141.698 3.83766C141.84 4.16566 142.035 4.4554 142.285 4.70687C142.536 4.95834 142.829 5.15514 143.166 5.29728C143.503 5.43941 143.857 5.51048 144.227 5.51048ZM146.38 23.9116V7.83932H142.106V23.9116H146.38Z" fill="#333A47"/>
<path d="M54.8743 43.4648C55.6251 43.4648 56.3099 43.3038 56.9286 42.9819C57.5474 42.6599 58.0236 42.233 58.3573 41.7011H58.4408V43.1288H60.2761V28.0953H58.3573V32.8405L58.4408 34.2683H58.3573C58.0236 33.7364 57.5474 33.3095 56.9286 32.9875C56.3099 32.6656 55.6251 32.5046 54.8743 32.5046C53.5394 32.5046 52.3923 33.0365 51.4329 34.1003C50.4874 35.1781 50.0146 36.4729 50.0146 37.9847C50.0146 39.4964 50.4874 40.7912 51.4329 41.869C52.3923 42.9329 53.5394 43.4648 54.8743 43.4648ZM55.1871 41.7011C54.2694 41.7011 53.4977 41.3511 52.872 40.6512C52.2463 39.9654 51.9335 39.0765 51.9335 37.9847C51.9335 36.9069 52.2463 36.018 52.872 35.3181C53.4977 34.6182 54.2694 34.2683 55.1871 34.2683C56.1187 34.2683 56.8904 34.6182 57.5022 35.3181C58.1279 36.018 58.4408 36.9069 58.4408 37.9847C58.4408 39.0905 58.1279 39.9863 57.5022 40.6722C56.9043 41.3581 56.1326 41.7011 55.1871 41.7011ZM66.7487 43.4648C67.7776 43.4648 68.6988 43.2198 69.5122 42.7299C70.3256 42.24 70.9617 41.5611 71.4206 40.6932L69.7103 39.8534C69.0151 41.0852 68.0557 41.7011 66.8321 41.7011C65.9422 41.7011 65.1775 41.3931 64.5379 40.7772C63.8983 40.1613 63.5646 39.3495 63.5367 38.3416H71.5666L71.5874 38.1317C71.5874 36.3539 71.139 34.9717 70.2422 33.9848C69.3453 32.998 68.1391 32.5046 66.6235 32.5046C65.1497 32.5046 63.94 33.026 62.9945 34.0688C62.049 35.1117 61.5762 36.4169 61.5762 37.9847C61.5762 39.5664 62.0629 40.8752 63.0362 41.911C64.0095 42.9469 65.247 43.4648 66.7487 43.4648ZM69.5435 36.7459H63.6827C63.8496 35.99 64.1937 35.3881 64.7151 34.9402C65.2366 34.4923 65.8588 34.2683 66.5818 34.2683C67.4578 34.2683 68.1565 34.5028 68.6779 34.9717C69.1993 35.4406 69.4879 36.032 69.5435 36.7459ZM76.8086 43.4648C77.9904 43.4648 78.9707 43.1568 79.7493 42.5409C80.528 41.925 80.9173 41.1692 80.9173 40.2733C80.9173 38.7196 79.9023 37.6907 77.8722 37.1868L76.3289 36.7879C75.2304 36.5359 74.6812 36.116 74.6812 35.5281C74.6812 35.1641 74.8793 34.8562 75.2756 34.6042C75.6719 34.3523 76.1203 34.2263 76.6208 34.2263C77.1631 34.2263 77.6533 34.3488 78.0912 34.5937C78.5292 34.8387 78.8456 35.1781 79.0402 35.6121L80.7505 34.8982C80.4585 34.1703 79.9475 33.5894 79.2175 33.1555C78.4875 32.7215 77.6706 32.5046 76.7668 32.5046C75.585 32.5046 74.6151 32.788 73.8573 33.3549C73.0995 33.9218 72.7206 34.6742 72.7206 35.6121C72.7206 37.0398 73.7148 38.0057 75.7031 38.5096L77.4551 38.9505C78.4562 39.2585 78.9568 39.7414 78.9568 40.3993C78.9568 40.7632 78.7517 41.0782 78.3415 41.3441C77.9313 41.6101 77.4203 41.7431 76.8086 41.7431C76.2385 41.7431 75.7136 41.5716 75.2339 41.2286C74.7542 40.8857 74.3892 40.4063 74.1389 39.7904L72.4286 40.5253C72.7624 41.4071 73.3185 42.1175 74.0972 42.6564C74.8758 43.1953 75.7796 43.4648 76.8086 43.4648ZM83.2602 30.6569C83.6356 30.6569 83.9554 30.5239 84.2196 30.258C84.4838 29.992 84.6159 29.6701 84.6159 29.2921C84.6159 28.9142 84.4838 28.5922 84.2196 28.3263C83.9554 28.0603 83.6356 27.9273 83.2602 27.9273C82.8848 27.9273 82.565 28.0603 82.3008 28.3263C82.0366 28.5922 81.9045 28.9142 81.9045 29.2921C81.9045 29.6701 82.0366 29.992 82.3008 30.258C82.565 30.5239 82.8848 30.6569 83.2602 30.6569ZM84.2196 43.1288V32.8405H82.3008V43.1288H84.2196ZM90.7965 48C92.3538 48 93.6052 47.5241 94.5507 46.5723C95.4823 45.6344 95.9481 44.3396 95.9481 42.6879V32.8405H94.1127V34.2683H94.0292C93.6677 33.7224 93.1776 33.292 92.5588 32.977C91.9401 32.6621 91.2692 32.5046 90.5462 32.5046C89.2113 32.5046 88.0642 33.0365 87.1048 34.1003C86.1593 35.1641 85.6866 36.4589 85.6866 37.9847C85.6866 39.5104 86.1593 40.8122 87.1048 41.89C88.0642 42.9399 89.2113 43.4648 90.5462 43.4648C91.2692 43.4648 91.9401 43.3073 92.5588 42.9924C93.1776 42.6774 93.6677 42.247 94.0292 41.7011H94.1127V42.6879C94.1127 43.7937 93.8207 44.6616 93.2367 45.2915C92.6527 45.9214 91.8393 46.2363 90.7965 46.2363C90.1151 46.2363 89.5172 46.0543 89.0028 45.6904C88.4883 45.3265 88.1268 44.8435 87.9182 44.2416L86.1037 44.9975C86.2566 45.4454 86.4791 45.8514 86.7711 46.2153C87.0631 46.5793 87.4142 46.8942 87.8244 47.1602C88.2346 47.4261 88.6899 47.6326 89.1905 47.7796C89.691 47.9265 90.2264 48 90.7965 48ZM90.859 41.7011C89.9413 41.7011 89.1696 41.3511 88.5439 40.6512C87.9182 39.9654 87.6054 39.0765 87.6054 37.9847C87.6054 36.9069 87.9182 36.018 88.5439 35.3181C89.1696 34.6182 89.9413 34.2683 90.859 34.2683C91.7906 34.2683 92.5623 34.6182 93.1741 35.3181C93.7998 36.018 94.1127 36.9069 94.1127 37.9847C94.1127 39.0905 93.7998 39.9863 93.1741 40.6722C92.5762 41.3581 91.8045 41.7011 90.859 41.7011ZM99.8552 43.1288V37.4388C99.8552 36.5709 100.112 35.8255 100.627 35.2026C101.141 34.5797 101.781 34.2683 102.546 34.2683C104.186 34.2683 105.028 35.1082 105.069 36.7879V43.1288H106.988V36.6619C106.988 35.3321 106.651 34.3068 105.977 33.5859C105.302 32.865 104.339 32.5046 103.088 32.5046C102.434 32.5046 101.805 32.6726 101.2 33.0085C100.596 33.3444 100.147 33.7644 99.8552 34.2683H99.7718V32.8405H97.9364V43.1288H99.8552Z" fill="#777777"/>
</svg>
