<svg width="24" height="24" viewBox="0 0 24 24" fill="none" xmlns="http://www.w3.org/2000/svg">
<g clip-path="url(#clip0)">
<path d="M19.0833 20.7499C19.0833 20.9709 18.9955 21.1829 18.8393 21.3391C18.683 21.4954 18.471 21.5832 18.25 21.5832H4.91667V2.41656H18.25C18.471 2.41656 18.683 2.50435 18.8393 2.66064C18.9955 2.81692 19.0833 3.02888 19.0833 3.24989V20.7499Z" stroke="#7385A5" stroke-linecap="round" stroke-linejoin="round"/>
<path d="M4.91667 2.41656H3.25C3.02899 2.41656 2.81702 2.50435 2.66074 2.66064C2.50446 2.81692 2.41667 3.02888 2.41667 3.24989V20.7499C2.41667 20.9709 2.50446 21.1829 2.66074 21.3391C2.81702 21.4954 3.02899 21.5832 3.25 21.5832H4.91667" stroke="#7385A5" stroke-linecap="round" stroke-linejoin="round"/>
<path d="M19.0833 3.66656H19.9167C20.3583 3.66788 20.7814 3.84389 21.0937 4.15617C21.406 4.46844 21.582 4.8916 21.5833 5.33322V7.83322H19.0833" stroke="#7385A5" stroke-linecap="round" stroke-linejoin="round"/>
<path d="M19.0833 7.83323H21.5833V11.9999H19.0833" stroke="#7385A5" stroke-linecap="round" stroke-linejoin="round"/>
<path d="M19.0833 11.9999H21.5833V16.1666H19.0833" stroke="#7385A5" stroke-linecap="round" stroke-linejoin="round"/>
<path d="M19.0833 16.1666H21.5833V18.6666C21.582 19.1082 21.406 19.5313 21.0937 19.8436C20.7814 20.1559 20.3583 20.3319 19.9167 20.3332H19.0833" stroke="#7385A5" stroke-linecap="round" stroke-linejoin="round"/>
<path d="M15.75 17.4166C15.75 16.3115 15.311 15.2517 14.5296 14.4703C13.7482 13.6889 12.6884 13.2499 11.5833 13.2499C10.4783 13.2499 9.41846 13.6889 8.63706 14.4703C7.85565 15.2517 7.41667 16.3115 7.41667 17.4166H15.75Z" stroke="#7385A5" stroke-linecap="round" stroke-linejoin="round"/>
<path d="M9.42917 8.23073C10.0153 8.8379 10.7724 9.25219 11.5998 9.41847C12.4272 9.58475 13.2856 9.49514 14.0608 9.16156" stroke="#7385A5" stroke-linecap="round" stroke-linejoin="round"/>
<path d="M11.5833 11.9999C12.964 11.9999 14.0833 10.8806 14.0833 9.49989C14.0833 8.11918 12.964 6.99989 11.5833 6.99989C10.2026 6.99989 9.08334 8.11918 9.08334 9.49989C9.08334 10.8806 10.2026 11.9999 11.5833 11.9999Z" stroke="#7385A5" stroke-linecap="round" stroke-linejoin="round"/>
</g>
<defs>
<clipPath id="clip0">
<rect width="20" height="20" fill="white" transform="translate(2 1.99989)"/>
</clipPath>
</defs>
</svg>
