<svg width="14" height="14" viewBox="0 0 14 14" fill="none" xmlns="http://www.w3.org/2000/svg">
<path d="M2.16348 3.6666H11.8366C11.9246 3.66666 12.0111 3.68408 12.0872 3.71708C12.1632 3.75008 12.226 3.79747 12.2693 3.8544C12.3125 3.91134 12.3346 3.97577 12.3333 4.04112C12.332 4.10647 12.3073 4.17038 12.2617 4.22633L7.4247 10.1553C7.3804 10.2096 7.31797 10.2546 7.24345 10.2857C7.16892 10.3169 7.08482 10.3333 6.99927 10.3333C6.91373 10.3333 6.82963 10.3169 6.7551 10.2857C6.68058 10.2546 6.61815 10.2096 6.57385 10.1553L1.7383 4.22633C1.69276 4.17038 1.66807 4.10647 1.66674 4.04112C1.66542 3.97577 1.68751 3.91134 1.73076 3.8544C1.774 3.79747 1.83686 3.75008 1.91289 3.71708C1.98892 3.68408 2.0754 3.66666 2.16348 3.6666Z" fill="#7385A5"/>
</svg>
