<svg width="24" height="24" viewBox="0 0 24 24" fill="none" xmlns="http://www.w3.org/2000/svg">
<path fill-rule="evenodd" clip-rule="evenodd" d="M8.5 7C8.5 5.067 10.067 3.5 12 3.5C13.933 3.5 15.5 5.067 15.5 7C15.5 8.933 13.933 10.5 12 10.5C10.067 10.5 8.5 8.933 8.5 7ZM12 2.5C9.51472 2.5 7.5 4.51472 7.5 7C7.5 9.48528 9.51472 11.5 12 11.5C14.4853 11.5 16.5 9.48528 16.5 7C16.5 4.51472 14.4853 2.5 12 2.5ZM5.5 19C5.5 17.067 7.067 15.5 9 15.5H15C16.933 15.5 18.5 17.067 18.5 19C18.5 19.8284 17.8284 20.5 17 20.5H7C6.17157 20.5 5.5 19.8284 5.5 19ZM9 14.5C6.51472 14.5 4.5 16.5147 4.5 19C4.5 20.3807 5.61929 21.5 7 21.5H17C18.3807 21.5 19.5 20.3807 19.5 19C19.5 16.5147 17.4853 14.5 15 14.5H9Z" fill="#232933"/>
</svg>
