<svg width="24" height="24" viewBox="0 0 24 24" fill="none" xmlns="http://www.w3.org/2000/svg">
<g clip-path="url(#clip0)">
<path d="M18.6017 8.01073C18.5078 8.20813 18.4563 8.42304 18.4507 8.64156C18.4451 8.86008 18.4854 9.07734 18.5691 9.27929C18.6527 9.48125 18.7779 9.66339 18.9364 9.81393C19.0949 9.96447 19.2832 10.0801 19.4892 10.1532L20.5433 10.5282C20.8475 10.6362 21.1108 10.8357 21.297 11.0994C21.4832 11.3631 21.5832 11.6779 21.5832 12.0007C21.5832 12.3235 21.4832 12.6384 21.297 12.9021C21.1108 13.1657 20.8475 13.3653 20.5433 13.4732L19.4892 13.8482C19.2832 13.9214 19.0949 14.037 18.9364 14.1875C18.7779 14.3381 18.6527 14.5202 18.5691 14.7222C18.4854 14.9241 18.4451 15.1414 18.4507 15.3599C18.4563 15.5784 18.5078 15.7933 18.6017 15.9907L19.0833 16.9999C19.2226 17.2915 19.268 17.619 19.2134 17.9375C19.1587 18.256 19.0067 18.5497 18.7782 18.7781C18.5498 19.0066 18.2561 19.1586 17.9376 19.2133C17.6191 19.2679 17.2916 19.2225 17 19.0832L15.9892 18.6032C15.7918 18.5093 15.5769 18.4579 15.3583 18.4523C15.1398 18.4467 14.9226 18.487 14.7206 18.5707C14.5187 18.6543 14.3365 18.7794 14.186 18.9379C14.0354 19.0964 13.9198 19.2847 13.8467 19.4907L13.4717 20.5449C13.3635 20.8488 13.164 21.1118 12.9004 21.2978C12.6368 21.4838 12.3222 21.5836 11.9996 21.5836C11.677 21.5836 11.3623 21.4838 11.0988 21.2978C10.8352 21.1118 10.6356 20.8488 10.5275 20.5449L10.1525 19.4907C10.0792 19.2847 9.96356 19.0964 9.81294 18.9379C9.66231 18.7794 9.4801 18.6543 9.27808 18.5706C9.07607 18.487 8.85874 18.4466 8.64016 18.4523C8.42158 18.4579 8.20662 18.5093 8.00917 18.6032L7 19.0832C6.70843 19.223 6.38066 19.2689 6.06193 19.2144C5.7432 19.16 5.44922 19.008 5.22058 18.7793C4.99194 18.5507 4.83991 18.2567 4.78547 17.938C4.73103 17.6192 4.77687 17.2915 4.91667 16.9999L5.39667 15.9891C5.49058 15.7917 5.542 15.5768 5.54761 15.3582C5.55322 15.1397 5.51289 14.9225 5.42924 14.7205C5.34558 14.5186 5.22046 14.3364 5.06197 14.1859C4.90348 14.0353 4.71515 13.9197 4.50917 13.8466L3.455 13.4716C3.1508 13.3636 2.88751 13.1641 2.70131 12.9004C2.51511 12.6367 2.41514 12.3219 2.41514 11.9991C2.41514 11.6763 2.51511 11.3614 2.70131 11.0977C2.88751 10.8341 3.1508 10.6345 3.455 10.5266L4.50917 10.1516C4.71493 10.0784 4.90306 9.96283 5.0614 9.8124C5.21974 9.66198 5.34476 9.48002 5.4284 9.27827C5.51203 9.07652 5.55242 8.85946 5.54696 8.64113C5.54149 8.4228 5.49029 8.20805 5.39667 8.01073L4.91667 6.9999C4.77687 6.70833 4.73103 6.38056 4.78547 6.06183C4.83991 5.7431 4.99194 5.44912 5.22058 5.22048C5.44922 4.99184 5.7432 4.83981 6.06193 4.78537C6.38066 4.73093 6.70843 4.77677 7 4.91657L8.01083 5.39657C8.2081 5.49024 8.42281 5.54152 8.64112 5.5471C8.85942 5.55269 9.07647 5.51245 9.27827 5.42898C9.48007 5.34551 9.66213 5.22067 9.81271 5.06251C9.96328 4.90435 10.079 4.71638 10.1525 4.51073L10.5275 3.45657C10.6356 3.15266 10.8352 2.88966 11.0988 2.70369C11.3623 2.51772 11.677 2.41788 11.9996 2.41788C12.3222 2.41788 12.6368 2.51772 12.9004 2.70369C13.164 2.88966 13.3635 3.15266 13.4717 3.45657L13.8467 4.51073C13.9198 4.71672 14.0354 4.90505 14.186 5.06354C14.3365 5.22203 14.5187 5.34715 14.7206 5.43081C14.9226 5.51446 15.1398 5.55479 15.3583 5.54918C15.5769 5.54357 15.7918 5.49214 15.9892 5.39823L17 4.91657C17.2916 4.77732 17.6191 4.73188 17.9376 4.78652C18.2561 4.84116 18.5498 4.99319 18.7782 5.22166C19.0067 5.45014 19.1587 5.74383 19.2134 6.0623C19.268 6.38076 19.2226 6.70833 19.0833 6.9999L18.6017 8.01073Z" stroke="#7385A5" stroke-linecap="round" stroke-linejoin="round"/>
<path d="M11.9992 15.7507C14.0702 15.7507 15.7492 14.0718 15.7492 12.0007C15.7492 9.92966 14.0702 8.25073 11.9992 8.25073C9.9281 8.25073 8.24916 9.92966 8.24916 12.0007C8.24916 14.0718 9.9281 15.7507 11.9992 15.7507Z" stroke="#7385A5" stroke-linecap="round" stroke-linejoin="round"/>
</g>
<defs>
<clipPath id="clip0">
<rect width="20" height="20" fill="white" transform="translate(2 1.99989)"/>
</clipPath>
</defs>
</svg>
